<svg xmlns="http://www.w3.org/2000/svg" viewBox="0 0 1200 1200"><path fill="#d5e9ec" d="M322 792c.67-135.58-1.33-271.87 1-407-4.65 17.09-.68 38.32-2 57 .67 116.52-1.33 234.23 1 350"/><path fill="#8ec9d0" d="M322 792v19c2.33-140.77.33-283.48 1-425 25.59.63 51.82-1.28 77 1-24.05-4.64-51.6-.68-77-2-2.33 135.13-.33 271.42-1 407"/><path fill="#97959e" d="M572 624v1c.25.25 1 0 1 0V386h65c-11.68-2.33-25.5-.33-38-1-9.64 2.3-31.75-6.87-28 10z"/><path fill="#3babbc" d="M322 811c0 .5.17 1.57 0 2 35.5 2.33 72.08.33 108 1 .67-79.91-1.33-160.53 1-240 1.01.55 1.44 1.98 2 3 1.26 4.75 5.59 8.35 7 13 4.42 5.35 7.32 12.02 11 18 1.1 3.31 4.38 5.58 5 9 3.22 3.8 5.66 8.49 8 13 7.4 14.25 17.22 27.54 24 42 5.16 6.19 8.94 13.88 13 21 0 0-.17.57 0 1 3.84 3.85 6.02 9.35 9 14 3 6.01 6.63 11.94 10 18 3.22 3.8 5.66 8.49 8 13 11.54 20.16 24.1 39.64 35 60 4.2 3.24 4.43 10 9 13V624c-5.32-3.79-5.79-11.19-10-16-3.5-2.68-4.91-7.21-7-11 .29-3.94-4.67-5.41-5-9-7.98-10.74-14.26-23.23-21-35-1.94-4.54-6.15-8.01-7-13-4.97-5.68-9.57-12.89-12-20-.26-.25-.83-.67-1-1-5.44-7.71-10.84-16.42-15-25 0 0 .17-.57 0-1-3.65-3.11-5.42-7.98-8-12-5.41-9.36-10.41-18.67-16-28-3.94-4.65-6.93-10.55-10-16-4.6-7.71-8.51-15.67-14-23-7.81-8.45-17.43-14.4-26-21-6.71-1.91-13.04-5.04-20-6-25.18-2.28-51.41-.37-77-1-.67 141.52 1.33 284.23-1 425"/><path fill="#535369" d="M573 625c-.67 60.84 1.33 122.99-1 183v5c.03.35.7.78 1 1h107V428c-2.35-21.16-20.59-40.03-42-42h-65z"/><path fill="#a5c7d8" d="M446 414c-7.35-9.04-15.8-16.28-26-21 8.57 6.6 18.19 12.55 26 21"/><path fill="#66697f" d="M680 713c0-.04 1 0 1 0-.19-.41 0-1 0-1V432c-.28-1.25.6-3.47-1-4z"/><path fill="#dadde9" d="M681 712c.25-.25 1 0 1 0-.67-93.18 1.33-187.57-1-280z"/><path fill="#b8d8e4" d="M470 453c-2.7-5.68-5.76-11.5-10-16 3.07 5.45 6.06 11.35 10 16"/><path fill="#bcddeb" d="M494 493c-2.05-4.35-4.31-8.89-8-12 2.58 4.02 4.35 8.89 8 12"/><path fill="#b0d8e4" d="M509 519c-3.8-8.97-9.71-16.98-15-25 4.16 8.58 9.56 17.29 15 25"/><path fill="#b2d8e3" d="M522 540c-4.28-6.56-7.66-13.73-12-20 2.43 7.11 7.03 14.32 12 20"/><path fill="#b1d8e3" d="M550 588c-6.73-11.81-12.72-24.33-21-35 6.74 11.77 13.02 24.26 21 35"/><path fill="#8dc4ce" d="M430 814c2.33-71.35.33-144.83 1-217 1.23-5.75-2.52-18.66 2-20-.56-1.02-.99-2.45-2-3-2.33 79.47-.33 160.09-1 240"/><path fill="#c2ebee" d="M451 608c-3.68-5.98-6.58-12.65-11-18 3.22 6.11 5.8 13.23 11 18"/><path fill="#b0d6e4" d="M562 608c-1.6-3.87-3.78-8.2-7-11 2.09 3.79 3.5 8.32 7 11"/><path fill="#c5eaeb" d="M464 630c-2.34-4.51-4.78-9.2-8-13 2.1 4.44 4.21 9.67 8 13"/><path fill="#4c7a94" d="M572 808c2.33-60.01.33-122.16 1-183 0 0-.75.25-1 0z"/><path fill="#c5e9ed" d="M501 693c-4.06-7.12-7.84-14.81-13-21 4.01 7.15 7.72 14.88 13 21"/><path fill="#c2e8ec" d="M510 708c-2.98-4.65-5.16-10.15-9-14 2.98 4.65 4.54 10.53 9 14"/><path fill="#f07081" d="M681 713c.12.26.95.65 1 1h190c-.04 0 0-1 0-1-62.83-.66-126.99 1.33-189-1h-1s-.75-.25-1 0c0 0-.19.59 0 1"/><path fill="#ebcfcb" d="M872 713h4c-.24-.32 0-1 0-1H683c62.01 2.33 126.17.34 189 1"/><path fill="#f8b0bd" d="M876 713c2.33 21.76.34 45.49 1 68-1.3 10.52 2.63 24.9-2 33h-3c-.25.27 0 1 0 1h6v-53c-1.31-16.35 2.64-35.19-2-50 0 0-.24.68 0 1"/><path fill="#8c5562" d="M680 814h1c.23-.16 0-1.5 0-2v-99s-1-.04-1 0z"/><path fill="#d45666" d="M681 812c2.33-31.76.34-65.48 1-98-.05-.35-.88-.74-1-1z"/><path fill="#de4655" d="M872 714h3c1.64 32.75 1.69 67.28 0 100 4.63-8.1.7-22.48 2-33-.66-22.51 1.33-46.24-1-68h-4s-.04 1 0 1"/><path fill="#fe585d" d="M681 812c0 .5.23 1.84 0 2h194c1.69-32.72 1.64-67.25 0-100H682c-.66 32.52 1.33 66.24-1 98"/><path fill="#c5eaed" d="M528 739c-2.34-4.51-4.78-9.2-8-13 1.55 4.74 4.82 9.32 8 13"/><path fill="#b9e4e3" d="M572 813v-1c-4.57-3-4.8-9.76-9-13 2.75 4.8 4.28 10.67 9 14"/><path fill="#dee1ed" d="M430 814c-35.92-.67-72.5 1.33-108-1 6.61 4.56 23.5.74 34 2 24.51-.66 50.24 1.33 74-1"/><path fill="#cbc7c8" d="M681 815c-.04 0 0-1 0-1H573c35.01 2.33 72.16.33 108 1"/><path fill="#f2beb9" d="M681 815h191s-.25-.73 0-1H681s-.04 1 0 1"/></svg>