<svg xmlns="http://www.w3.org/2000/svg" xmlns:xlink="http://www.w3.org/1999/xlink" width="282.635" height="109.545" viewBox="0 0 74.78 28.984"><defs><linearGradient id="e"><stop offset="0" style="stop-color:#000;stop-opacity:1"/><stop style="stop-color:#000;stop-opacity:.56941175" offset=".441"/><stop offset="1" style="stop-color:#fff;stop-opacity:.95529413"/></linearGradient><linearGradient id="d"><stop style="stop-color:#2b2b2b;stop-opacity:.58117646" offset="0"/><stop offset=".426" style="stop-color:#101010;stop-opacity:.02352941"/><stop offset=".689" style="stop-color:#000;stop-opacity:.52235293"/><stop style="stop-color:#fff;stop-opacity:.97647059" offset="1"/></linearGradient><linearGradient id="c"><stop style="stop-color:#000;stop-opacity:.31058824" offset="0"/><stop style="stop-color:#000;stop-opacity:.49176469" offset="1"/></linearGradient><linearGradient id="b"><stop offset="0" style="stop-color:#000;stop-opacity:.07764706"/><stop offset="1" style="stop-color:#fff;stop-opacity:.49019608"/></linearGradient><linearGradient id="a"><stop style="stop-color:#044c81;stop-opacity:1" offset="0"/><stop style="stop-color:#3fcef8;stop-opacity:1" offset="1"/></linearGradient><linearGradient xlink:href="#a" id="f" x1="-128.739" y1="145.04" x2="-114.474" y2="147.134" gradientUnits="userSpaceOnUse"/><linearGradient xlink:href="#a" id="h" gradientUnits="userSpaceOnUse" x1="-128.739" y1="145.04" x2="-114.474" y2="147.134"/><linearGradient xlink:href="#a" id="i" gradientUnits="userSpaceOnUse" x1="-128.739" y1="145.04" x2="-114.474" y2="147.134"/><linearGradient xlink:href="#a" id="g" gradientUnits="userSpaceOnUse" x1="-128.739" y1="145.04" x2="-114.474" y2="147.134"/><linearGradient xlink:href="#a" id="j" gradientUnits="userSpaceOnUse" x1="-128.739" y1="145.04" x2="-114.474" y2="147.134"/><linearGradient xlink:href="#b" id="k" x1="92.681" y1="79.24" x2="92.681" y2="37.572" gradientUnits="userSpaceOnUse" gradientTransform="translate(-148.356 132.367)scale(.26458)"/><linearGradient gradientTransform="translate(-148.296 132.352)scale(.26458)" xlink:href="#c" id="l" x1="85.891" y1="40.026" x2="85.891" y2="76.013" gradientUnits="userSpaceOnUse"/><linearGradient xlink:href="#d" id="m" x1="-135.079" y1="154.608" x2="-127.425" y2="134.198" gradientUnits="userSpaceOnUse" gradientTransform="translate(-.017 -.008)"/><linearGradient gradientTransform="matrix(1 0 0 1.00087 .02 -.126)" xlink:href="#e" id="n" x1="-124.903" y1="149.691" x2="-137.346" y2="140.121" gradientUnits="userSpaceOnUse"/></defs><g transform="translate(199.513 -204.32)scale(1.46816)" style="stroke:url(#f)"><g transform="translate(-19.727 14.363)" style="stroke:url(#g)"><g transform="translate(.067 -.356)" style="stroke:url(#h)"/><g transform="translate(.067 -.524)" style="stroke:url(#i)"/></g><path style="opacity:1;fill:none;fill-opacity:1;stroke:url(#j);stroke-width:1.49847806;stroke-linecap:round;stroke-linejoin:bevel;stroke-miterlimit:4;stroke-dasharray:none;stroke-opacity:1" d="M-121.38 144.446a1.73 1.73 0 0 1-1.729 1.728 1.73 1.73 0 0 1-1.728-1.728 1.73 1.73 0 0 1 1.728-1.728 1.73 1.73 0 0 1 1.728 1.728zm6.157 5.375a4.53 4.53 0 0 1-4.53 4.53 4.53 4.53 0 0 1-4.529-4.53 4.53 4.53 0 0 1 4.53-4.529 4.53 4.53 0 0 1 4.529 4.53zm-2.802 0a1.73 1.73 0 0 1-1.728 1.728 1.73 1.73 0 0 1-1.728-1.728 1.73 1.73 0 0 1 1.728-1.728 1.73 1.73 0 0 1 1.728 1.728zm-3.91 0a4.53 4.53 0 0 1-4.53 4.53 4.53 4.53 0 0 1-4.529-4.53 4.53 4.53 0 0 1 4.53-4.529 4.53 4.53 0 0 1 4.529 4.53zm-2.802 0a1.73 1.73 0 0 1-1.728 1.728 1.73 1.73 0 0 1-1.728-1.728 1.73 1.73 0 0 1 1.728-1.728 1.73 1.73 0 0 1 1.728 1.728zm6.158-5.375a4.53 4.53 0 0 1-4.53 4.53 4.53 4.53 0 0 1-4.529-4.53 4.53 4.53 0 0 1 4.53-4.53 4.53 4.53 0 0 1 4.529 4.53z"/></g><path style="opacity:1;fill:#efff00;fill-opacity:1;stroke:none;stroke-width:.11122963;stroke-linecap:round;stroke-linejoin:bevel;stroke-miterlimit:4;stroke-dasharray:none;stroke-opacity:1" d="M-124.703 142.284c-1.285.013-2.577.455-3.56 1.29-.008.12.118.217.166.324.362.563.631 1.18.85 1.81.075.102.152-.071.209-.112.529-.519 1.233-.878 1.974-.956.545-.037 1.104-.022 1.613.2 1.111.422 1.963 1.467 2.118 2.646.138.976-.163 2.019-.838 2.75-.667.738-1.673 1.162-2.668 1.086-.863-.012-1.689-.435-2.284-1.052-.043-.073-.145-.082-.149.02a8 8 0 0 1-.992 2.025c-.023.104.129.144.183.21a5.63 5.63 0 0 0 3.581 1.136c1.853-.025 3.646-1.053 4.633-2.617.486-.768.81-1.652.875-2.562.012-.648.037-1.31-.155-1.937a5.7 5.7 0 0 0-3.247-3.792 5.6 5.6 0 0 0-2.309-.47zm-7.05 3.041c-.068.034-.079.129-.118.19-.032.085-.14.109-.143.202.157.2.357.464.471.693.19.36.308.748.367 1.149.008.047.065.046.092.02.733.138 1.484.146 2.227.116.072-.03.019-.125.026-.184a5.7 5.7 0 0 0-.435-1.756c-.033-.074-.12-.023-.178-.031a5 5 0 0 1-1.313-.104c-.339-.068-.665-.182-.99-.295h-.005zm-5.006-2.565c-.374.123-.71.344-1.035.563a5.7 5.7 0 0 0-2.277 3.416c-.395 1.725.08 3.622 1.25 4.952a5.68 5.68 0 0 0 3.449 1.911c.503.087 1.02.069 1.528.028a5.7 5.7 0 0 0 4.039-2.46c.63-.921.974-2.029.988-3.144-.01-.115.031-.28-.057-.36-.745.019-1.493.024-2.223-.124-.102.06-.037.22-.06.314.029.844-.253 1.698-.828 2.33a3.38 3.38 0 0 1-2.035 1.114c-.759.091-1.558-.03-2.215-.44-1.042-.609-1.702-1.813-1.632-3.022a3.3 3.3 0 0 1 1.118-2.368c.307-.291.693-.494 1.08-.658.109 0 .05-.121 0-.164a8.7 8.7 0 0 1-1.035-1.856.054.054 0 0 0-.055-.032m2.074-2.414c-.192.007-.393-.003-.577.048.013.749.238 1.487.55 2.165.547 1.144 1.627 2.638 2.768 3.191.531-.675.988-1.744 1.065-2.115-.294-.389-1.744-1.751-1.98-2.777-.042-.114-.023-.267-.106-.357a8.7 8.7 0 0 0-1.72-.155m4.984-5.946c-1.056-.003-2.102.34-2.987.908-1.539.994-2.547 2.768-2.588 4.602.002.158-.031.322-.004.475.498.008 1.005-.033 1.504.024.267.013.532.093.796.102.088-.093.015-.249.031-.364a3.38 3.38 0 0 1 1.377-2.775c.961-.723 2.313-.85 3.398-.34 1.178.525 1.98 1.792 1.944 3.076.018.13-.03.286.026.404.273-.016.555-.093.836-.106.482-.052.973-.014 1.454-.022.038-.198-.004-.426.001-.635-.037-1.08-.439-2.136-1.066-3.011-.976-1.357-2.58-2.247-4.25-2.333q-.237-.007-.472-.005m-1.19 9.207c-.157.138-.238.352-.355.526-.212.37-.41.75-.557 1.15.037.108.196.11.286.16.695.241 1.438.374 2.174.307.106-.05-.022-.182-.042-.254-.363-.715-.853-1.374-1.474-1.884q-.014-.007-.032-.004z" transform="translate(148.356 -132.334)"/><g transform="translate(175.575 -96.381)"/><text xml:space="preserve" style="font-style:normal;font-variant:normal;font-weight:400;font-stretch:normal;font-size:6.51888132px;line-height:125%;font-family:&quot;Myriad Pro&quot;;-inkscape-font-specification:&quot;Myriad Pro&quot;;letter-spacing:0;word-spacing:0;fill:#9e9e9e;fill-opacity:1;stroke:none;stroke-width:.23705021px;stroke-linecap:butt;stroke-linejoin:miter;stroke-opacity:1" x="-113.922" y="138.191" transform="translate(148.356 -132.334)"><tspan x="-113.922" y="138.191" style="fill:#9e9e9e;fill-opacity:1;stroke-width:.23705021px">APACHE</tspan></text><text xml:space="preserve" style="font-style:normal;font-variant:normal;font-weight:400;font-stretch:normal;font-size:18.66136932px;line-height:125%;font-family:&quot;Myriad Pro&quot;;-inkscape-font-specification:&quot;Myriad Pro&quot;;letter-spacing:0;word-spacing:0;fill:#000;fill-opacity:1;stroke:none;stroke-width:.67859524px;stroke-linecap:butt;stroke-linejoin:miter;stroke-opacity:1" x="-114.257" y="153.4" transform="translate(148.356 -132.334)"><tspan x="-114.257" y="153.4" style="font-style:normal;font-variant:normal;font-weight:400;font-stretch:normal;font-family:Roboto;-inkscape-font-specification:Roboto;stroke-width:.67859524px">felix</tspan></text><path style="opacity:1;fill:url(#k);fill-opacity:1;stroke:none;stroke-width:.03788072;stroke-linecap:round;stroke-linejoin:bevel;stroke-miterlimit:4;stroke-dasharray:none;stroke-opacity:1" d="M-124.9 142.294a5.6 5.6 0 0 0-3.346 1.256c-.119.176.114.348.175.5.335.538.555 1.135.817 1.708.117.087.226-.112.319-.169.531-.466 1.196-.826 1.91-.872.585-.015 1.202-.023 1.731.268 1.163.528 1.99 1.755 1.954 3.048-.016 1.143-.63 2.277-1.64 2.837-.57.348-1.24.483-1.902.44-.837-.013-1.618-.452-2.215-1.025-.066-.077-.195-.083-.21.04a10.3 10.3 0 0 1-.95 1.954c-.092.222.208.33.342.438a5.7 5.7 0 0 0 4.311.913c2.078-.358 3.847-1.988 4.438-4.003.248-.74.19-1.535.182-2.304-.027-.66-.295-1.285-.565-1.88-.913-1.884-2.953-3.177-5.053-3.15a9 9 0 0 0-.299 0" transform="translate(148.356 -132.334)"/><path style="opacity:1;fill:url(#l);fill-opacity:1;stroke:none;stroke-width:.03788072;stroke-linecap:round;stroke-linejoin:bevel;stroke-miterlimit:4;stroke-dasharray:none;stroke-opacity:1" d="M-125.612 142.363a5.54 5.54 0 0 0-2.574 1.172c-.12.176.113.349.174.5.335.539.555 1.135.818 1.708.117.088.226-.112.318-.168.532-.466 1.196-.827 1.91-.873.586-.015 1.203-.023 1.732.268 1.004.457 1.756 1.434 1.92 2.524a5.7 5.7 0 0 0-4.298-5.13m4.239 6.385c-.208.874-.755 1.668-1.548 2.108-.57.348-1.24.482-1.901.439-.838-.013-1.618-.452-2.216-1.025-.066-.077-.195-.083-.208.041a10.3 10.3 0 0 1-.952 1.953c-.091.222.208.33.342.439a5.7 5.7 0 0 0 1.72.804 5.7 5.7 0 0 0 4.763-4.76" transform="translate(148.356 -132.334)"/><path style="opacity:.671;fill:url(#m);fill-opacity:1;stroke:none;stroke-width:.11122964;stroke-linecap:round;stroke-linejoin:bevel;stroke-miterlimit:4;stroke-dasharray:none;stroke-opacity:1" d="M-129.694 134.388c-1.056-.003-2.102.341-2.987.91-1.54.993-2.547 2.767-2.589 4.6.002.15-.025.304-.007.449a5.134 5.94 67.023 0 1 .74-1.58 5.134 5.94 67.023 0 1 5.502-2.867 5.134 5.94 67.023 0 1 2.559.577 5.134 5.94 67.023 0 1 2.573 3.365l-.004-.105c-.037-1.08-.439-2.136-1.066-3.01-.976-1.357-2.58-2.247-4.25-2.333a12 12 0 0 0-.471-.005zm.637 11.922a5.134 5.94 67.023 0 1-.1.022 5.428 6.03 43.826 0 1-.915 2.963 5.428 6.03 43.826 0 1-7.922 2.5 5.428 6.03 43.826 0 1-1.765-1.643c.23.555.546 1.075.944 1.528a5.68 5.68 0 0 0 3.45 1.91c.503.088 1.02.07 1.528.029a5.7 5.7 0 0 0 4.038-2.46c.63-.922.975-2.029.988-3.144-.008-.104.02-.246-.039-.332.07-.03.018-.124.025-.184a6 6 0 0 0-.232-1.189" transform="translate(148.356 -132.334)"/><path style="opacity:.8;fill:url(#n);fill-opacity:1;stroke:none;stroke-width:.11127789;stroke-linecap:round;stroke-linejoin:bevel;stroke-miterlimit:4;stroke-dasharray:none;stroke-opacity:1" d="M-130.076 134.394a5.64 5.64 0 0 0-2.626.896c-1.54.994-2.547 2.77-2.589 4.606.002.158-.03.322-.004.475h.066q-.024.002-.047.008c.013.75.237 1.489.55 2.167.535 1.123 1.583 2.578 2.699 3.157l-.002.004c.157.201.358.465.472.694.188.36.307.749.366 1.15a.04.04 0 0 0 .035.035c-.033.075.003.188-.015.262.028.844-.254 1.7-.83 2.333a3.38 3.38 0 0 1-2.033 1.114c-.76.092-1.559-.03-2.216-.44-1.042-.61-1.702-1.815-1.632-3.025a3.3 3.3 0 0 1 1.118-2.37c.307-.291.693-.495 1.08-.658.109-.001.05-.121.001-.165-.429-.57-.76-1.202-1.036-1.858a.054.054 0 0 0-.055-.031c-.374.123-.71.344-1.035.564a5.7 5.7 0 0 0-2.277 3.418c-.395 1.727.08 3.626 1.25 4.957a5.68 5.68 0 0 0 3.449 1.912c.382.066.773.071 1.16.052a5.2 5.2 0 0 1-1.12-.054 5.68 5.68 0 0 1-3.448-1.912 5.5 5.5 0 0 1-.944-1.53 5.43 6.032 43.589 0 0 1.765 1.645 5.43 6.032 43.589 0 0 7.921-2.502 5.43 6.032 43.589 0 0 .916-2.966 5.137 5.941 66.899 0 0 .06-.013 5 5 0 0 0-.204-.574.06.06 0 0 0-.043-.036c.032-.061-.059-.163-.075-.223-.363-.716-.853-1.375-1.475-1.885a.05.05 0 0 0-.032-.004l-.006.006c-.32-.41-1.728-1.747-1.961-2.759-.043-.114-.023-.267-.107-.358h-.006c.073-.095.007-.243.023-.354a3.38 3.38 0 0 1 1.377-2.777c.96-.724 2.313-.85 3.397-.341 1.179.526 1.98 1.795 1.945 3.08.017.13-.03.285.026.403.272-.015.555-.093.835-.105.483-.052.974-.014 1.455-.022.038-.198-.004-.427.001-.636q-.005-.084-.013-.167a5.137 5.941 66.899 0 0-2.517-3.098 5.137 5.941 66.899 0 0-2.559-.578 5.137 5.941 66.899 0 0-5.5 2.87 5.137 5.941 66.899 0 0-.741 1.581c-.019-.145.009-.3.007-.448.041-1.836 1.05-3.612 2.588-4.606a5.66 5.66 0 0 1 2.586-.894" transform="translate(148.356 -132.334)"/></svg>