<svg id="visual" viewBox="0 0 900 900" width="900" height="900" xmlns="http://www.w3.org/2000/svg" xmlns:xlink="http://www.w3.org/1999/xlink" version="1.1"><g transform="translate(453.32100958002695 512.7895592605875)"><path d="M183.5 -277.2C231.3 -217.7 259.3 -155.5 291.2 -87.5C323 -19.5 358.9 54.4 344.1 115.5C329.3 176.6 264 225 198.2 250.5C132.4 276.1 66.2 278.7 4.2 272.9C-57.8 267.1 -115.6 252.9 -165.1 222.1C-214.5 191.2 -255.6 143.8 -292.7 82.6C-329.7 21.4 -362.7 -53.6 -352.2 -123.3C-341.7 -193 -287.8 -257.5 -221.9 -311.1C-156 -364.7 -78 -407.3 -5.1 -400.3C67.8 -393.3 135.6 -336.6 183.5 -277.2" fill="#2c7b6a"></path></g></svg>