<?xml version="1.0" standalone="no"?><svg xmlns="http://www.w3.org/2000/svg" viewBox="0 0 1440 320"><path fill="#2c7b5b" fill-opacity="1.2" d="M0,96L16,133.3C32,171,64,245,96,261.3C128,277,160,235,192,218.7C224,203,256,213,288,202.7C320,192,352,160,384,160C416,160,448,192,480,218.7C512,245,544,267,576,256C608,245,640,203,672,192C704,181,736,203,768,202.7C800,203,832,181,864,192C896,203,928,245,960,234.7C992,224,1024,160,1056,149.3C1088,139,1120,181,1152,202.7C1184,224,1216,224,1248,213.3C1280,203,1312,181,1344,170.7C1376,160,1408,160,1424,160L1440,160L1440,0L1424,0C1408,0,1376,0,1344,0C1312,0,1280,0,1248,0C1216,0,1184,0,1152,0C1120,0,1088,0,1056,0C1024,0,992,0,960,0C928,0,896,0,864,0C832,0,800,0,768,0C736,0,704,0,672,0C640,0,608,0,576,0C544,0,512,0,480,0C448,0,416,0,384,0C352,0,320,0,288,0C256,0,224,0,192,0C160,0,128,0,96,0C64,0,32,0,16,0L0,0Z"></path></svg>