<?xml version="1.0" standalone="no"?><svg xmlns="http://www.w3.org/2000/svg" viewBox="0 0 1440 320"><path fill="#2C7A7B" fill-opacity="1.2" d="M0,160L16,160C32,160,64,160,96,170.7C128,181,160,203,192,181.3C224,160,256,96,288,80C320,64,352,96,384,101.3C416,107,448,85,480,112C512,139,544,213,576,213.3C608,213,640,139,672,117.3C704,96,736,128,768,149.3C800,171,832,181,864,186.7C896,192,928,192,960,176C992,160,1024,128,1056,117.3C1088,107,1120,117,1152,112C1184,107,1216,85,1248,117.3C1280,149,1312,235,1344,266.7C1376,299,1408,277,1424,266.7L1440,256L1440,0L1424,0C1408,0,1376,0,1344,0C1312,0,1280,0,1248,0C1216,0,1184,0,1152,0C1120,0,1088,0,1056,0C1024,0,992,0,960,0C928,0,896,0,864,0C832,0,800,0,768,0C736,0,704,0,672,0C640,0,608,0,576,0C544,0,512,0,480,0C448,0,416,0,384,0C352,0,320,0,288,0C256,0,224,0,192,0C160,0,128,0,96,0C64,0,32,0,16,0L0,0Z"></path></svg>