<svg xmlns="http://www.w3.org/2000/svg" viewBox="0 0 1440 320"><path fill="#2c7b5b" fill-opacity="1" d="M0,288L11.4,288C22.9,288,46,288,69,272C91.4,256,114,224,137,197.3C160,171,183,149,206,144C228.6,139,251,149,274,176C297.1,203,320,245,343,256C365.7,267,389,245,411,202.7C434.3,160,457,96,480,96C502.9,96,526,160,549,192C571.4,224,594,224,617,192C640,160,663,96,686,101.3C708.6,107,731,181,754,202.7C777.1,224,800,192,823,170.7C845.7,149,869,139,891,154.7C914.3,171,937,213,960,192C982.9,171,1006,85,1029,90.7C1051.4,96,1074,192,1097,224C1120,256,1143,224,1166,186.7C1188.6,149,1211,107,1234,85.3C1257.1,64,1280,64,1303,106.7C1325.7,149,1349,235,1371,250.7C1394.3,267,1417,213,1429,186.7L1440,160L1440,0L1428.6,0C1417.1,0,1394,0,1371,0C1348.6,0,1326,0,1303,0C1280,0,1257,0,1234,0C1211.4,0,1189,0,1166,0C1142.9,0,1120,0,1097,0C1074.3,0,1051,0,1029,0C1005.7,0,983,0,960,0C937.1,0,914,0,891,0C868.6,0,846,0,823,0C800,0,777,0,754,0C731.4,0,709,0,686,0C662.9,0,640,0,617,0C594.3,0,571,0,549,0C525.7,0,503,0,480,0C457.1,0,434,0,411,0C388.6,0,366,0,343,0C320,0,297,0,274,0C251.4,0,229,0,206,0C182.9,0,160,0,137,0C114.3,0,91,0,69,0C45.7,0,23,0,11,0L0,0Z"></path></svg>