<?xml version="1.0" standalone="no"?><svg xmlns="http://www.w3.org/2000/svg" viewBox="0 0 1440 320"><path fill="#2c7b5b" fill-opacity="1.2" d="M0,160L16,160C32,160,64,160,96,170.7C128,181,160,203,192,181.3C224,160,256,96,288,80C320,64,352,96,384,101.3C416,107,448,85,480,112C512,139,544,213,576,213.3C608,213,640,139,672,117.3C704,96,736,128,768,149.3C800,171,832,181,864,186.7C896,192,928,192,960,176C992,160,1024,128,1056,117.3C1088,107,1120,117,1152,112C1184,107,1216,85,1248,117.3C1280,149,1312,235,1344,266.7C1376,299,1408,277,1424,266.7L1440,256L1440,320L1424,320C1408,320,1376,320,1344,320C1312,320,1280,320,1248,320C1216,320,1184,320,1152,320C1120,320,1088,320,1056,320C1024,320,992,320,960,320C928,320,896,320,864,320C832,320,800,320,768,320C736,320,704,320,672,320C640,320,608,320,576,320C544,320,512,320,480,320C448,320,416,320,384,320C352,320,320,320,288,320C256,320,224,320,192,320C160,320,128,320,96,320C64,320,32,320,16,320L0,320Z"></path></svg>