<svg xmlns="http://www.w3.org/2000/svg" viewBox="0 0 1440 320"><path fill="#fcba03" fill-opacity="1" d="M0,288L11.4,288C22.9,288,46,288,69,272C91.4,256,114,224,137,197.3C160,171,183,149,206,144C228.6,139,251,149,274,176C297.1,203,320,245,343,256C365.7,267,389,245,411,202.7C434.3,160,457,96,480,96C502.9,96,526,160,549,192C571.4,224,594,224,617,192C640,160,663,96,686,101.3C708.6,107,731,181,754,202.7C777.1,224,800,192,823,170.7C845.7,149,869,139,891,154.7C914.3,171,937,213,960,192C982.9,171,1006,85,1029,90.7C1051.4,96,1074,192,1097,224C1120,256,1143,224,1166,186.7C1188.6,149,1211,107,1234,85.3C1257.1,64,1280,64,1303,106.7C1325.7,149,1349,235,1371,250.7C1394.3,267,1417,213,1429,186.7L1440,160L1440,320L1428.6,320C1417.1,320,1394,320,1371,320C1348.6,320,1326,320,1303,320C1280,320,1257,320,1234,320C1211.4,320,1189,320,1166,320C1142.9,320,1120,320,1097,320C1074.3,320,1051,320,1029,320C1005.7,320,983,320,960,320C937.1,320,914,320,891,320C868.6,320,846,320,823,320C800,320,777,320,754,320C731.4,320,709,320,686,320C662.9,320,640,320,617,320C594.3,320,571,320,549,320C525.7,320,503,320,480,320C457.1,320,434,320,411,320C388.6,320,366,320,343,320C320,320,297,320,274,320C251.4,320,229,320,206,320C182.9,320,160,320,137,320C114.3,320,91,320,69,320C45.7,320,23,320,11,320L0,320Z"></path></svg>